<?xml version="1.0" encoding="UTF-8"?><!DOCTYPE svg PUBLIC "-//W3C//DTD SVG 1.1//EN" "http://www.w3.org/Graphics/SVG/1.1/DTD/svg11.dtd"><svg xmlns="http://www.w3.org/2000/svg" xmlns:xlink="http://www.w3.org/1999/xlink" version="1.1" width="30" height="30" viewBox="0 0 24 24"><path fill="url(#lg)" d="M7,5H21V7H7V5M7,13V11H21V13H7M4,4.5A1.5,1.5 0 0,1 5.5,6A1.5,1.5 0 0,1 4,7.5A1.5,1.5 0 0,1 2.5,6A1.5,1.5 0 0,1 4,4.5M4,10.5A1.5,1.5 0 0,1 5.5,12A1.5,1.5 0 0,1 4,13.5A1.5,1.5 0 0,1 2.5,12A1.5,1.5 0 0,1 4,10.5M7,19V17H21V19H7M4,16.5A1.5,1.5 0 0,1 5.5,18A1.5,1.5 0 0,1 4,19.5A1.5,1.5 0 0,1 2.5,18A1.5,1.5 0 0,1 4,16.5Z" /><linearGradient id="lg" x1="0%" y1="0%" x2="0%" y2="100%">
                                                                                                                                                                                                                                                                                                                                                                                                                                                                                                                                                                                                                               <stop offset="0%" stop-color="#046F9B"/>
                                                                                                                                                                                                                                                                                                                                                                                                                                                                                                                                                                                                                               <stop offset="50%" stop-color="#34BDF0"/>
                                                                                                                                                                                                                                                                                                                                                                                                                                                                                                                                                                                                                               <stop offset="100%" stop-color="#046F9B"/>
                                                                                                                                                                                                                                                                                                                                                                                                                                                                                                                                                                                                                           </linearGradient></svg>