<?xml version="1.0" encoding="UTF-8"?><!DOCTYPE svg PUBLIC "-//W3C//DTD SVG 1.1//EN" "http://www.w3.org/Graphics/SVG/1.1/DTD/svg11.dtd"><svg xmlns="http://www.w3.org/2000/svg" xmlns:xlink="http://www.w3.org/1999/xlink" version="1.1" width="25" height="25" viewBox="0 0 24 24"><path fill="url(#lg)" d="M9.5,3A6.5,6.5 0 0,1 16,9.5C16,11.11 15.41,12.59 14.44,13.73L14.71,14H15.5L20.5,19L19,20.5L14,15.5V14.71L13.73,14.44C12.59,15.41 11.11,16 9.5,16A6.5,6.5 0 0,1 3,9.5A6.5,6.5 0 0,1 9.5,3M9.5,5C7,5 5,7 5,9.5C5,12 7,14 9.5,14C12,14 14,12 14,9.5C14,7 12,5 9.5,5Z" /><linearGradient id="lg" x1="0%" y1="0%" x2="0%" y2="100%">
                                                                                                                                                                                                                                                                                                                                                                                                                                                                                                                                                                                     <stop offset="0%" stop-color="#046F9B"/>
                                                                                                                                                                                                                                                                                                                                                                                                                                                                                                                                                                                     <stop offset="50%" stop-color="#34BDF0"/>
                                                                                                                                                                                                                                                                                                                                                                                                                                                                                                                                                                                     <stop offset="100%" stop-color="#046F9B"/>
                                                                                                                                                                                                                                                                                                                                                                                                                                                                                                                                                                                 </linearGradient></svg>